<?xml version="1.0" encoding="UTF-8"?>
<!DOCTYPE svg
PUBLIC "-//W3C//DTD SVG 1.1//EN"
       "http://www.w3.org/Graphics/SVG/1.1/DTD/svg11.dtd">
<svg viewBox="100 30 673 552" width="573px" height="522px" xmlns="http://www.w3.org/2000/svg" version="1.1">
   <rect width="169" height="20" x="172" y="357" style="fill:#007;stroke:black;"/>
   <text width="169" height="20" x="177" y="371" style="fill:#fff;" font-family="Arial" font-size="16px"> tournament</text>
   <rect width="169" height="20" x="172" y="377" style="fill:#aea;stroke:black;"/>
   <text width="169" height="20" x="177" y="391" style="fill:black;" font-family="Arial" font-size="16px">tournament_id</text>
   <rect width="169" height="20" x="172" y="397" style="fill:none;stroke:black;"/>
   <text width="169" height="20" x="177" y="411" style="fill:black;" font-family="Arial" font-size="16px">code</text>
   <rect width="169" height="20" x="172" y="417" style="fill:none;stroke:black;"/>
   <text width="169" height="20" x="177" y="431" style="fill:black;" font-family="Arial" font-size="16px">start_time</text>
   <rect width="169" height="20" x="172" y="437" style="fill:none;stroke:black;"/>
   <text width="169" height="20" x="177" y="451" style="fill:black;" font-family="Arial" font-size="16px">end_time</text>
   <rect width="169" height="20" x="172" y="457" style="fill:none;stroke:black;"/>
   <text width="169" height="20" x="177" y="471" style="fill:black;" font-family="Arial" font-size="16px">date_created</text>
   <rect width="169" height="20" x="172" y="477" style="fill:none;stroke:black;"/>
   <text width="169" height="20" x="177" y="491" style="fill:black;" font-family="Arial" font-size="16px">image</text>
   <rect width="169" height="20" x="172" y="497" style="fill:none;stroke:black;"/>
   <text width="169" height="20" x="177" y="511" style="fill:black;" font-family="Arial" font-size="16px">spare</text>
   <rect width="169" height="20" x="172" y="517" style="fill:none;stroke:black;"/>
   <text width="169" height="20" x="177" y="531" style="fill:black;" font-family="Arial" font-size="16px">version</text>
   <rect width="169" height="20" x="115" y="74" style="fill:#007;stroke:black;"/>
   <text width="169" height="20" x="120" y="88" style="fill:#fff;" font-family="Arial" font-size="16px"> tournament_group</text>
   <rect width="169" height="20" x="115" y="94" style="fill:#aea;stroke:black;"/>
   <text width="169" height="20" x="120" y="108" style="fill:black;" font-family="Arial" font-size="16px">tournament_group_id</text>
   <rect width="169" height="20" x="115" y="114" style="fill:none;stroke:black;"/>
   <text width="169" height="20" x="120" y="128" style="fill:black;" font-family="Arial" font-size="16px">tournament_id</text>
   <rect width="169" height="20" x="115" y="134" style="fill:none;stroke:black;"/>
   <text width="169" height="20" x="120" y="148" style="fill:black;" font-family="Arial" font-size="16px">code</text>
   <rect width="169" height="20" x="115" y="154" style="fill:none;stroke:black;"/>
   <text width="169" height="20" x="120" y="168" style="fill:black;" font-family="Arial" font-size="16px">version</text>
   <rect width="169" height="20" x="115" y="174" style="fill:none;stroke:black;"/>
   <text width="169" height="20" x="120" y="188" style="fill:black;" font-family="Arial" font-size="16px">spare</text>
   <rect width="169" height="20" x="115" y="194" style="fill:none;stroke:black;"/>
   <text width="169" height="20" x="120" y="208" style="fill:black;" font-family="Arial" font-size="16px">date_created</text>
   <rect width="169" height="20" x="503" y="45" style="fill:#007;stroke:black;"/>
   <text width="169" height="20" x="508" y="59" style="fill:#fff;" font-family="Arial" font-size="16px"> user</text>
   <rect width="169" height="20" x="503" y="65" style="fill:#aea;stroke:black;"/>
   <text width="169" height="20" x="508" y="79" style="fill:black;" font-family="Arial" font-size="16px">user_id</text>
   <rect width="169" height="20" x="503" y="85" style="fill:none;stroke:black;"/>
   <text width="169" height="20" x="508" y="99" style="fill:black;" font-family="Arial" font-size="16px">countryISO2</text>
   <rect width="169" height="20" x="503" y="105" style="fill:none;stroke:black;"/>
   <text width="169" height="20" x="508" y="119" style="fill:black;" font-family="Arial" font-size="16px">level</text>
   <rect width="169" height="20" x="503" y="125" style="fill:none;stroke:black;"/>
   <text width="169" height="20" x="508" y="139" style="fill:black;" font-family="Arial" font-size="16px">coin</text>
   <rect width="169" height="20" x="503" y="145" style="fill:none;stroke:black;"/>
   <text width="169" height="20" x="508" y="159" style="fill:black;" font-family="Arial" font-size="16px">spare</text>
   <rect width="169" height="20" x="503" y="165" style="fill:none;stroke:black;"/>
   <text width="169" height="20" x="508" y="179" style="fill:black;" font-family="Arial" font-size="16px">image</text>
   <rect width="169" height="20" x="503" y="185" style="fill:none;stroke:black;"/>
   <text width="169" height="20" x="508" y="199" style="fill:black;" font-family="Arial" font-size="16px">name</text>
   <rect width="169" height="20" x="503" y="205" style="fill:none;stroke:black;"/>
   <text width="169" height="20" x="508" y="219" style="fill:black;" font-family="Arial" font-size="16px">date_created</text>
   <rect width="169" height="20" x="503" y="225" style="fill:none;stroke:black;"/>
   <text width="169" height="20" x="508" y="239" style="fill:black;" font-family="Arial" font-size="16px">date_modified</text>
   <rect width="169" height="20" x="474" y="331" style="fill:#007;stroke:black;"/>
   <text width="169" height="20" x="479" y="345" style="fill:#fff;" font-family="Arial" font-size="16px"> user_tournament_group</text>
   <rect width="169" height="20" x="474" y="351" style="fill:#aea;stroke:black;"/>
   <text width="169" height="20" x="479" y="365" style="fill:black;" font-family="Arial" font-size="16px">utg_id</text>
   <rect width="169" height="20" x="474" y="371" style="fill:none;stroke:black;"/>
   <text width="169" height="20" x="479" y="385" style="fill:black;" font-family="Arial" font-size="16px">user_id</text>
   <rect width="169" height="20" x="474" y="391" style="fill:none;stroke:black;"/>
   <text width="169" height="20" x="479" y="405" style="fill:black;" font-family="Arial" font-size="16px">tournament_group_id</text>
   <rect width="169" height="20" x="474" y="411" style="fill:none;stroke:black;"/>
   <text width="169" height="20" x="479" y="425" style="fill:black;" font-family="Arial" font-size="16px">level_when_joined</text>
   <rect width="169" height="20" x="474" y="431" style="fill:none;stroke:black;"/>
   <text width="169" height="20" x="479" y="445" style="fill:black;" font-family="Arial" font-size="16px">score</text>
   <rect width="169" height="20" x="474" y="451" style="fill:none;stroke:black;"/>
   <text width="169" height="20" x="479" y="465" style="fill:black;" font-family="Arial" font-size="16px">rewardsClaimed</text>
   <rect width="169" height="20" x="474" y="471" style="fill:none;stroke:black;"/>
   <text width="169" height="20" x="479" y="485" style="fill:black;" font-family="Arial" font-size="16px">date_created</text>
   <rect width="169" height="20" x="474" y="491" style="fill:none;stroke:black;"/>
   <text width="169" height="20" x="479" y="505" style="fill:black;" font-family="Arial" font-size="16px">spare</text>
   <rect width="169" height="20" x="474" y="511" style="fill:none;stroke:black;"/>
   <text width="169" height="20" x="479" y="525" style="fill:black;" font-family="Arial" font-size="16px">date_modified</text>
</svg>
