<?xml version="1.0" encoding="UTF-8"?>
<!DOCTYPE svg
PUBLIC "-//W3C//DTD SVG 1.1//EN"
       "http://www.w3.org/Graphics/SVG/1.1/DTD/svg11.dtd">
<svg viewBox="92 42 769 530" width="677px" height="488px" xmlns="http://www.w3.org/2000/svg" version="1.1">
   <line x1="352" y1="485" x2="342" y2="485" style="stroke:#b0b;stroke-width:1;"/>
   <line x1="226" y1="311" x2="216" y2="311" style="stroke:#b0b;stroke-width:1;"/>
   <line x1="342" y1="485" x2="226" y2="311" style="stroke:#b0b;stroke-width:1;"/>
   <line x1="344.5" y1="485" x2="348.03553390593" y2="488.53553390593" style="stroke:#b0b;stroke-width:2;"/>
   <line x1="344.5" y1="485" x2="348.03553390593" y2="481.46446609407" style="stroke:#b0b;stroke-width:2;"/>
   <line x1="221" y1="311" x2="224.53553390593" y2="314.53553390593" style="stroke:#b0b;stroke-width:2;"/>
   <line x1="221" y1="311" x2="224.53553390593" y2="307.46446609407" style="stroke:#b0b;stroke-width:2;"/>
   <line x1="465" y1="87" x2="475" y2="87" style="stroke:#b0b;stroke-width:1;"/>
   <line x1="575" y1="272" x2="585" y2="272" style="stroke:#b0b;stroke-width:1;"/>
   <line x1="475" y1="87" x2="575" y2="272" style="stroke:#b0b;stroke-width:1;"/>
   <line x1="472.5" y1="87" x2="468.96446609407" y2="90.535533905933" style="stroke:#b0b;stroke-width:2;"/>
   <line x1="472.5" y1="87" x2="468.96446609407" y2="83.464466094067" style="stroke:#b0b;stroke-width:2;"/>
   <line x1="580" y1="272" x2="576.46446609407" y2="275.53553390593" style="stroke:#b0b;stroke-width:2;"/>
   <line x1="580" y1="272" x2="576.46446609407" y2="268.46446609407" style="stroke:#b0b;stroke-width:2;"/>
   <line x1="585" y1="292" x2="575" y2="292" style="stroke:#0bf;stroke-width:1;"/>
   <line x1="499" y1="405" x2="489" y2="405" style="stroke:#0bf;stroke-width:1;"/>
   <line x1="575" y1="292" x2="499" y2="405" style="stroke:#0bf;stroke-width:1;"/>
   <line x1="577.5" y1="292" x2="581.03553390593" y2="295.53553390593" style="stroke:#0bf;stroke-width:2;"/>
   <line x1="577.5" y1="292" x2="581.03553390593" y2="288.46446609407" style="stroke:#0bf;stroke-width:2;"/>
   <line x1="494" y1="405" x2="497.53553390593" y2="408.53553390593" style="stroke:#0bf;stroke-width:2;"/>
   <line x1="494" y1="405" x2="497.53553390593" y2="401.46446609407" style="stroke:#0bf;stroke-width:2;"/>
   <rect width="109" height="20" x="107" y="281" style="fill:#007;stroke:black;"/>
   <text width="109" height="20" x="112" y="295" style="fill:#fff;" font-family="Arial" font-size="16px"> tournament</text>
   <rect width="109" height="20" x="107" y="301" style="fill:#aea;stroke:black;"/>
   <text width="109" height="20" x="112" y="315" style="fill:black;" font-family="Arial" font-size="16px">tournament_id</text>
   <rect width="109" height="20" x="107" y="321" style="fill:none;stroke:black;"/>
   <text width="109" height="20" x="112" y="335" style="fill:black;" font-family="Arial" font-size="16px">code</text>
   <rect width="109" height="20" x="107" y="341" style="fill:none;stroke:black;"/>
   <text width="109" height="20" x="112" y="355" style="fill:black;" font-family="Arial" font-size="16px">date_created</text>
   <rect width="109" height="20" x="107" y="361" style="fill:none;stroke:black;"/>
   <text width="109" height="20" x="112" y="375" style="fill:black;" font-family="Arial" font-size="16px">image</text>
   <rect width="109" height="20" x="107" y="381" style="fill:none;stroke:black;"/>
   <text width="109" height="20" x="112" y="395" style="fill:black;" font-family="Arial" font-size="16px">spare</text>
   <rect width="109" height="20" x="107" y="401" style="fill:none;stroke:black;"/>
   <text width="109" height="20" x="112" y="415" style="fill:black;" font-family="Arial" font-size="16px">version</text>
   <rect width="137" height="20" x="352" y="375" style="fill:#007;stroke:black;"/>
   <text width="137" height="20" x="357" y="389" style="fill:#fff;" font-family="Arial" font-size="16px"> tournament_group</text>
   <rect width="137" height="20" x="352" y="395" style="fill:#aea;stroke:black;"/>
   <text width="137" height="20" x="357" y="409" style="fill:black;" font-family="Arial" font-size="16px">id</text>
   <rect width="137" height="20" x="352" y="415" style="fill:none;stroke:black;"/>
   <text width="137" height="20" x="357" y="429" style="fill:black;" font-family="Arial" font-size="16px">code</text>
   <rect width="137" height="20" x="352" y="435" style="fill:none;stroke:black;"/>
   <text width="137" height="20" x="357" y="449" style="fill:black;" font-family="Arial" font-size="16px">version</text>
   <rect width="137" height="20" x="352" y="455" style="fill:none;stroke:black;"/>
   <text width="137" height="20" x="357" y="469" style="fill:black;" font-family="Arial" font-size="16px">spare</text>
   <rect width="137" height="20" x="352" y="475" style="fill:none;stroke:black;"/>
   <text width="137" height="20" x="357" y="489" style="fill:black;" font-family="Arial" font-size="16px">tournament_id</text>
   <rect width="137" height="20" x="352" y="495" style="fill:none;stroke:black;"/>
   <text width="137" height="20" x="357" y="509" style="fill:black;" font-family="Arial" font-size="16px">date_created</text>
   <rect width="107" height="20" x="358" y="57" style="fill:#007;stroke:black;"/>
   <text width="107" height="20" x="363" y="71" style="fill:#fff;" font-family="Arial" font-size="16px"> user</text>
   <rect width="107" height="20" x="358" y="77" style="fill:#aea;stroke:black;"/>
   <text width="107" height="20" x="363" y="91" style="fill:black;" font-family="Arial" font-size="16px">id</text>
   <rect width="107" height="20" x="358" y="97" style="fill:none;stroke:black;"/>
   <text width="107" height="20" x="363" y="111" style="fill:black;" font-family="Arial" font-size="16px">countryISO2</text>
   <rect width="107" height="20" x="358" y="117" style="fill:none;stroke:black;"/>
   <text width="107" height="20" x="363" y="131" style="fill:black;" font-family="Arial" font-size="16px">level</text>
   <rect width="107" height="20" x="358" y="137" style="fill:none;stroke:black;"/>
   <text width="107" height="20" x="363" y="151" style="fill:black;" font-family="Arial" font-size="16px">coin</text>
   <rect width="107" height="20" x="358" y="157" style="fill:none;stroke:black;"/>
   <text width="107" height="20" x="363" y="171" style="fill:black;" font-family="Arial" font-size="16px">spare</text>
   <rect width="107" height="20" x="358" y="177" style="fill:none;stroke:black;"/>
   <text width="107" height="20" x="363" y="191" style="fill:black;" font-family="Arial" font-size="16px">image</text>
   <rect width="107" height="20" x="358" y="197" style="fill:none;stroke:black;"/>
   <text width="107" height="20" x="363" y="211" style="fill:black;" font-family="Arial" font-size="16px">name</text>
   <rect width="107" height="20" x="358" y="217" style="fill:none;stroke:black;"/>
   <text width="107" height="20" x="363" y="231" style="fill:black;" font-family="Arial" font-size="16px">date_created</text>
   <rect width="107" height="20" x="358" y="237" style="fill:none;stroke:black;"/>
   <text width="107" height="20" x="363" y="251" style="fill:black;" font-family="Arial" font-size="16px">date_modified</text>
   <rect width="169" height="20" x="585" y="222" style="fill:#007;stroke:black;"/>
   <text width="169" height="20" x="590" y="236" style="fill:#fff;" font-family="Arial" font-size="16px"> user_tournament_group</text>
   <rect width="169" height="20" x="585" y="242" style="fill:#aea;stroke:black;"/>
   <text width="169" height="20" x="590" y="256" style="fill:black;" font-family="Arial" font-size="16px">utg_id</text>
   <rect width="169" height="20" x="585" y="262" style="fill:none;stroke:black;"/>
   <text width="169" height="20" x="590" y="276" style="fill:black;" font-family="Arial" font-size="16px">user_id</text>
   <rect width="169" height="20" x="585" y="282" style="fill:none;stroke:black;"/>
   <text width="169" height="20" x="590" y="296" style="fill:black;" font-family="Arial" font-size="16px">tournament_group_id</text>
   <rect width="169" height="20" x="585" y="302" style="fill:none;stroke:black;"/>
   <text width="169" height="20" x="590" y="316" style="fill:black;" font-family="Arial" font-size="16px">score</text>
   <rect width="169" height="20" x="585" y="322" style="fill:none;stroke:black;"/>
   <text width="169" height="20" x="590" y="336" style="fill:black;" font-family="Arial" font-size="16px">spare</text>
   <rect width="169" height="20" x="585" y="342" style="fill:none;stroke:black;"/>
   <text width="169" height="20" x="590" y="356" style="fill:black;" font-family="Arial" font-size="16px">date_created</text>
</svg>
